# xmcd
#
# Track frame offsets:
#	150
#	59007
#	72893
#	109913
#	140795
#	157040
#	198666
#	226690
#	267881
#	295123
#
# Disc length: 4240 seconds
#
# Revision: 1
# Processed by: cddbd v1.5.2PL0 Copyright (c) Steve Scherf et al.
# Submitted via: audiograbber 1.83.01
#
DISCID=9b108e0a
DTITLE=Grateful Dead - 79-08-13 McNichols Sports Arena, Denver CO
DYEAR=1900
DGENRE=
TTITLE0=Shakedown Street
TTITLE1=Me and My Uncle
TTITLE2=Big River
TTITLE3=Candyman
TTITLE4=El Paso
TTITLE5=Friend Of The Devil
TTITLE6=Minglewood Blues
TTITLE7=Althea
TTITLE8=Lost Sailor
TTITLE9=Deal
EXTD=
EXTT0=
EXTT1=
EXTT2=
EXTT3=
EXTT4=
EXTT5=
EXTT6=
EXTT7=
EXTT8=
EXTT9=
PLAYORDER=
